<?xml version="1.0" standalone="no"?>
<!DOCTYPE svg PUBLIC "-//W3C//DTD SVG 20010904//EN"
 "http://www.w3.org/TR/2001/REC-SVG-20010904/DTD/svg10.dtd">
<svg version="1.0" xmlns="http://www.w3.org/2000/svg"
 width="154.000000pt" height="154.000000pt" viewBox="0 0 154.000000 154.000000"
 preserveAspectRatio="xMidYMid meet">
<metadata>
Created by potrace 1.11, written by Peter Selinger 2001-2013
</metadata>
<g transform="translate(0.000000,154.000000) scale(0.100000,-0.100000)"
fill="#000000" stroke="none">
<path d="M0 770 l0 -770 770 0 770 0 0 770 0 770 -770 0 -770 0 0 -770z m410
235 c0 -68 -2 -75 -20 -75 -17 0 -20 -7 -20 -45 l0 -45 70 0 70 0 0 45 c0 38
-3 45 -20 45 -18 0 -20 7 -20 75 l0 75 163 -2 162 -3 0 -70 c0 -65 -2 -70 -22
-73 -23 -3 -23 -5 -23 -157 0 -152 0 -154 23 -157 20 -3 22 -9 25 -75 l3 -73
-166 0 -165 0 0 75 c0 68 2 75 20 75 17 0 20 7 20 45 l0 45 -70 0 -70 0 0 -45
c0 -38 3 -45 20 -45 18 0 20 -7 20 -75 l0 -75 -160 0 -160 0 0 75 c0 68 2 75
20 75 19 0 20 7 20 155 0 148 -1 155 -20 155 -18 0 -20 7 -20 75 l0 75 160 0
160 0 0 -75z m810 0 l0 -75 -30 0 -30 0 0 -155 0 -155 70 0 70 0 0 45 0 45 75
0 75 0 0 -120 0 -120 -295 0 -296 0 3 73 c3 70 4 72 31 75 l27 3 0 155 0 154
-30 0 -30 0 0 68 c0 38 3 72 7 75 3 4 84 7 180 7 l173 0 0 -75z"/>
</g>
</svg>
